<svg version="1.1" id="veterinary-15" xmlns="http://www.w3.org/2000/svg" width="15" height="15"><path id="path3340" d="M7.5 6c-2.5 0-3 2.28-3 3.47a6.15 6.15 0 00-1.7.89 2 2 0 00-.4 2.78 2.06 2.06 0 002.8.4 4 4 0 012.3-.69 4 4 0 012.3.69 2 2 0 002.8-.3 1.93 1.93 0 00-.3-2.78l-.1-.1a8.996 8.996 0 00-1.7-.89C10.5 8.29 10 6 7.5 6z"/><path id="ellipse4153" d="M2.08 4.3a1.58 1.58 0 00-.76 2 1.52 1.52 0 001.61 1.4 1.58 1.58 0 00.76-2 1.52 1.52 0 00-1.61-1.4z"/><path id="ellipse4163" d="M12.93 4.3a1.58 1.58 0 01.76 2 1.52 1.52 0 01-1.61 1.4 1.58 1.58 0 01-.76-2 1.52 1.52 0 011.61-1.4z"/><path id="ellipse4165" d="M5.08 1.3c-.68.09-1 .94-.76 1.87A1.77 1.77 0 005.93 4.7c.68-.09 1-.94.76-1.87A1.77 1.77 0 005.08 1.3z"/><path id="ellipse4167" d="M9.93 1.3c.68.09 1 .94.76 1.87A1.77 1.77 0 019.07 4.7c-.68-.08-1-.94-.76-1.87A1.77 1.77 0 019.93 1.3z"/></svg>