<svg width="480" height="150" xmlns="http://www.w3.org/2000/svg"><g id="Rezoning_heading" stroke="none" stroke-width="1" fill="none" fill-rule="evenodd"><g id="zones"><path id="zone4" fill="#004F8F" style="mix-blend-mode:screen" d="M0 0h100v100H0z"/><path id="zone4-stroke" stroke="#C0E2FF" stroke-width="2" style="mix-blend-mode:screen" d="M1 1h98v98H1z"/><path id="zone3-fill" fill="#003764" style="mix-blend-mode:screen" d="M50 50h100v100H50z"/><path id="zone3-stroke" stroke="#72A9D9" stroke-width="2" style="mix-blend-mode:screen" d="M51 51h98v98H51z"/><path id="zone2-fill" fill="#006DC6" style="mix-blend-mode:screen" d="M35 15h100v100H35z"/><path id="zone2-stroke" stroke="#399CF3" stroke-width="2" style="mix-blend-mode:screen" d="M36 16h98v98H36z"/><path id="zone1-fill" fill="#225F91" style="mix-blend-mode:screen" d="M15 35h100v100H15z"/><path id="zone1-stroke" stroke="#81C4FF" stroke-width="2" style="mix-blend-mode:screen" d="M16 36h98v98H16z"/></g><path d="M182.071 136v-19.797H192L202 136h9l-10.786-20.639c3.19-.936 5.607-2.562 7.25-4.879 1.643-2.317 2.465-5.23 2.465-8.74 0-4.54-1.286-8.131-3.858-10.776C203.5 88.322 199.976 87 195.5 87H174v49h8.071zm12.549-26H182V94h12.62c2.01 0 3.576.54 4.697 1.622 1.122 1.08 1.683 2.63 1.683 4.648v3.46c0 2.018-.56 3.567-1.683 4.648-1.121 1.081-2.687 1.622-4.697 1.622zm36.16 27c3.418 0 6.414-.664 8.988-1.99 2.575-1.328 4.54-3.11 5.898-5.345l-4.494-4.4c-1.076 1.676-2.387 3.003-3.932 3.981-1.544.978-3.44 1.467-5.687 1.467-3.09 0-5.465-.896-7.126-2.69-1.662-1.792-2.493-4.085-2.493-6.88v-1.187H247v-2.864c0-2.515-.34-4.867-1.018-7.055-.679-2.189-1.697-4.11-3.054-5.763-1.358-1.653-3.055-2.946-5.09-3.877-2.037-.931-4.39-1.397-7.057-1.397-2.621 0-4.962.442-7.021 1.327a14.557 14.557 0 00-5.266 3.807c-1.451 1.653-2.563 3.656-3.335 6.008-.773 2.351-1.159 4.97-1.159 7.858 0 2.887.386 5.507 1.159 7.858.772 2.352 1.884 4.355 3.335 6.008a14.557 14.557 0 005.266 3.807c2.06.885 4.4 1.327 7.02 1.327zm9.22-22h-17v-.49c0-1.398.21-2.68.632-3.846.422-1.165 1.019-2.167 1.792-3.007a8.015 8.015 0 012.81-1.958c1.1-.466 2.306-.699 3.617-.699 2.53 0 4.52.85 5.971 2.552 1.452 1.702 2.178 3.951 2.178 6.749V115zm40 21v-6.333h-20.265l19.776-24.69V99h-27.882v6.333h18.867L251 129.738V136h29zm20 1c2.56 0 4.896-.442 7.006-1.327 2.11-.885 3.9-2.154 5.37-3.807 1.47-1.653 2.609-3.656 3.415-6.008.806-2.351 1.209-4.97 1.209-7.858 0-2.887-.403-5.507-1.21-7.858-.805-2.352-1.943-4.355-3.413-6.008-1.47-1.653-3.26-2.922-5.37-3.807C304.896 99.442 302.56 99 300 99c-2.56 0-4.896.442-7.006 1.327-2.11.885-3.9 2.154-5.37 3.807-1.47 1.653-2.609 3.656-3.415 6.008-.806 2.351-1.209 4.97-1.209 7.858 0 2.887.403 5.507 1.21 7.858.805 2.352 1.943 4.355 3.413 6.008 1.47 1.653 3.26 2.922 5.37 3.807 2.11.885 4.446 1.327 7.007 1.327zm-1-6c-2.71 0-4.887-.821-6.532-2.464-1.645-1.643-2.468-4.107-2.468-7.393v-6.286c0-3.286.823-5.75 2.468-7.393C294.113 105.821 296.29 105 299 105s4.887.821 6.532 2.464c1.645 1.643 2.468 4.107 2.468 7.393v6.286c0 3.286-.823 5.75-2.468 7.393C303.887 130.179 301.71 131 299 131zm32.622 5v-24.203c0-1.066.222-1.994.665-2.782a5.727 5.727 0 011.783-1.947 8.25 8.25 0 012.552-1.148 11.21 11.21 0 012.902-.382c4.57 0 6.854 2.828 6.854 8.485V136H354v-22.951c0-4.498-1.037-7.963-3.112-10.398-2.074-2.434-4.977-3.651-8.706-3.651-2.797 0-5 .65-6.609 1.947a11.936 11.936 0 00-3.601 4.869h-.35v-5.981H324V136h7.622zm34.913-43c1.581 0 2.72-.366 3.418-1.1.698-.732 1.047-1.671 1.047-2.816v-1.168c0-1.145-.349-2.084-1.047-2.817-.697-.733-1.837-1.099-3.418-1.099-1.582 0-2.733.366-3.454 1.1-.72.732-1.081 1.671-1.081 2.816v1.168c0 1.145.36 2.084 1.081 2.817.721.733 1.872 1.099 3.454 1.099zM370 136V99h-8v37h8zm16.622 0v-24.203c0-1.066.222-1.994.665-2.782a5.727 5.727 0 011.783-1.947 8.25 8.25 0 012.552-1.148 11.21 11.21 0 012.902-.382c4.57 0 6.854 2.828 6.854 8.485V136H409v-22.951c0-4.498-1.037-7.963-3.112-10.398-2.074-2.434-4.977-3.651-8.706-3.651-2.797 0-5 .65-6.609 1.947a11.936 11.936 0 00-3.601 4.869h-.35v-5.981H379V136h7.622zm44.898 15c6.533 0 11.247-.955 14.14-2.864 2.893-1.91 4.34-4.75 4.34-8.522 0-3.12-1.003-5.577-3.01-7.37-2.007-1.792-5.25-2.689-9.73-2.689h-8.96c-1.633 0-2.893-.21-3.78-.629-.887-.419-1.33-1.117-1.33-2.095 0-.931.35-1.688 1.05-2.27a7.827 7.827 0 012.45-1.362c1.4.372 2.987.558 4.76.558 4.667 0 8.26-1.129 10.78-3.388 2.52-2.258 3.78-5.227 3.78-8.906 0-2.095-.443-3.993-1.33-5.693a10.97 10.97 0 00-3.78-4.156v-1.467h7.42V94h-5.6c-1.633 0-2.835.454-3.605 1.362-.77.908-1.155 2.177-1.155 3.807v.978c-1.82-.745-4.013-1.118-6.58-1.118-4.667 0-8.248 1.141-10.745 3.423s-3.745 5.286-3.745 9.011c0 2.468.572 4.622 1.715 6.462 1.143 1.84 2.788 3.271 4.935 4.296v.279c-1.773.42-3.29 1.13-4.55 2.13-1.26 1.002-1.89 2.434-1.89 4.296 0 2.841 1.377 4.704 4.13 5.589v.768c-1.96.42-3.488 1.188-4.585 2.305-1.097 1.118-1.645 2.678-1.645 4.68 0 1.397.303 2.632.91 3.703.607 1.07 1.575 1.979 2.905 2.724 1.33.745 3.033 1.315 5.11 1.711 2.077.396 4.608.594 7.595.594zm-.52-33c-2.218 0-3.939-.512-5.163-1.536-1.225-1.024-1.837-2.607-1.837-4.75v-1.428c0-2.143.612-3.726 1.837-4.75C427.06 104.512 428.782 104 431 104c2.218 0 3.939.512 5.163 1.536 1.225 1.024 1.837 2.607 1.837 4.75v1.428c0 2.143-.612 3.726-1.837 4.75C434.94 117.488 433.218 118 431 118zm3.313 28h-4.652c-2.782 0-4.754-.447-5.917-1.34-1.163-.893-1.744-2.072-1.744-3.538 0-1.786.82-3.16 2.463-4.122h12.039c2.462 0 4.16.366 5.096 1.1.935.732 1.402 1.717 1.402 2.953 0 3.298-2.896 4.947-8.687 4.947z" id="Rezoning" fill="#23A6F5" fill-rule="nonzero"/></g></svg>