<svg xmlns="http://www.w3.org/2000/svg" viewBox="0 0 20 20"><g fill="none" fill-rule="evenodd"><path fill="#374863" d="M9.583 16h.834v3h-.834v-3zm-.833 3h2.5v1h-2.5v-1z"/><path stroke="#374863" d="M15.094 11.58l3.822 4.478H1.084l3.822-4.478h10.188z"/><path stroke="#374863" d="M16.73 13.497l2.186 2.561H1.084l2.186-2.56h13.46z"/><path stroke="#374863" d="M7.563 11.58L6.29 16.058H1.084l3.822-4.478h2.657zm7.53 0l3.823 4.478H13.71l-1.274-4.478h2.657z"/><g stroke="#374863" transform="translate(4.8 1.038)"><circle cx="5.2" cy="5.12" r="2.7"/><path d="M5.2 0v.64m3.62.86l-.452.452M10.32 5.12h-.64m-.86 3.62l-.452-.452M5.2 10.24V9.6m-3.62-.86l.452-.452M.08 5.12h.64m.86-3.62l.452.452" stroke-linecap="square"/></g></g></svg>