<svg xmlns="http://www.w3.org/2000/svg" viewBox="0 0 20 20"><g fill="none" fill-rule="evenodd"><g fill="#374863"><path d="M10.516 0v3.793c.274.15.468.416.508.726l.007.118L14.5 6.534l-.516.846-3.469-1.896a1.05 1.05 0 01-.178.077l.447 11.139-1.65-.173.523-10.968a1.054 1.054 0 01-.171-.075L6.016 7.38 5.5 6.534l3.469-1.896c0-.361.207-.676.515-.845V0h1.032z"/><path d="M15.085 5.285l.557 2.236a.59.59 0 01.412.426l2.214.635-.163.57-2.214-.634a.595.595 0 01-.113.085L16 17h-1l.218-8.246-1.56 1.507-.412-.426 1.657-1.601a.593.593 0 01.115-.517l.048-.052-.557-2.236.576-.144zm-9.933-1.46l.557.202-.788 2.165a.593.593 0 01.103.584l1.48 1.765-.454.381-1.278-1.524L5 16H4l.234-8.88a.59.59 0 01-.172-.113l-.05-.052-2.268.4-.103-.585 2.268-.4a.59.59 0 01.454-.38l.789-2.166z"/></g><path d="M0 16.5c1.667-.333 3.333-.5 5-.5 2.5 0 7.5 1 10 1 1.667 0 3.333-.167 5-.5m-20 1c1.667-.333 3.333-.5 5-.5 2.5 0 7.5 1 10 1 1.667 0 3.333-.167 5-.5m-20 1c1.667-.333 3.333-.5 5-.5 2.5 0 7.5 1 10 1 1.667 0 3.333-.167 5-.5" stroke="#374863" stroke-linecap="square" stroke-width=".5"/></g></svg>