<svg xmlns="http://www.w3.org/2000/svg" viewBox="0 0 20 20"><g fill="none" fill-rule="evenodd"><path d="M-2 0h20v20H-2z"/><g fill="#374863"><path d="M11.451 5.458l.498.181-.703 1.932a.527.527 0 01.092.52l1.32 1.575-.404.34-1.15-1.369.347 8.698 1.131.665H9.145l1.13-.665.357-8.938a.532.532 0 01-.197-.146l-2.024.357-.092-.521 2.024-.358a.53.53 0 01.343-.324l.062-.015.703-1.932zM14.138 8l.514.867c.098 0 .183.052.23.129h1.027v.258H14.88a.262.262 0 01-.093.092L15 15.773l.658.465h-2l.658-.465.204-6.17-.383.647-.23-.129.515-.867a.252.252 0 010-.258l-.514-.867.23-.129z"/><path d="M5.38 0v3.884a1 1 0 01.507.745l.007.12 3.47 1.943-.516.866-3.469-1.942c-.06.034-.125.062-.193.084l.56 13.35 1.696.95H2.285l1.696-.95.56-13.35a1.042 1.042 0 01-.192-.083L.88 7.558l-.515-.866L3.832 4.75c0-.37.207-.693.515-.866L4.348 0h1.031z"/></g></g></svg>